#!OML:ASF \\sashay\E\Suitcase\Project 1\Capture day 1\Session 1\Male1.ASF
:FULLY-SPECIFIED
:DEGREES
442
root 0.644357 17.6 -13.3642 6.48934 1.67078 -2.99296
lowerback 3.76902 -1.65628 4.59019
upperback 0.394958 -1.9378 4.19987
thorax -1.71466 -0.985603 1.85355
lowerneck -15.4983 1.50741 1.43785
upperneck 11.6981 3.09206 -9.02207
head 6.27898 0.821525 -2.82143
rclavicle 7.7526e-015 -1.59028e-015
rhumerus -57.5459 -32.9288 -38.9973
rradius 11.8719
rwrist 19.6159
rhand -18.4588 10.0787
rfingers 7.12502
rthumb 7.82755 -19.7564
lclavicle 7.7526e-015 -1.59028e-015
lhumerus -41.1521 -1.35275 85.9334
lradius 37.4577
lwrist -6.46847
lhand 0.106225 42.2494
lfingers 7.12502
lthumb 25.6921 70.5355
rfemur -18.2636 2.79069 26.4803
rtibia 18.0405
rfoot -6.62605 -9.67156
rtoes 21.717
lfemur -8.89622 2.94199 -15.9463
ltibia 58.0259
lfoot 5.1403 -9.75681
ltoes 26.3327
443
root 0.638245 17.5947 -13.2799 6.20791 1.86913 -3.25738
lowerback 4.24393 -1.76341 4.923
upperback 0.300222 -2.0194 4.27906
thorax -2.08792 -1.03328 1.77427
lowerneck -15.5698 1.3933 1.39869
upperneck 11.7895 2.96333 -9.08605
head 6.31387 0.747689 -2.84971
rclavicle -1.35174e-014 -3.02153e-014
rhumerus -58.643 -35.6045 -35.7984
rradius 11.2345
rwrist 23.6979
rhand -18.3175 10.612
rfingers 7.12502
rthumb 7.9639 -19.218
lclavicle -1.35174e-014 -3.02153e-014
lhumerus -40.8921 -1.09864 85.7983
lradius 37.7309
lwrist -6.51318
lhand -0.0411583 42.3056
lfingers 7.12502
lthumb 25.5509 70.612
rfemur -17.7494 2.5763 26.8773
rtibia 18.2382
rfoot -6.76225 -9.70683
rtoes 22.556
lfemur -9.83761 2.98777 -15.4328
ltibia 59.2842
lfoot 3.59559 -9.13419
ltoes 28.821
444
root 0.619477 17.5935 -13.1753 5.99593 1.62989 -3.19693
lowerback 4.0253 -1.64224 4.66623
upperback 0.578553 -1.90505 4.31734
thorax -1.66734 -0.967614 1.93539
lowerneck -15.8528 1.46107 1.00815
upperneck 11.8362 3.14275 -9.03309
head 6.38175 0.811946 -2.75071
rclavicle -6.75868e-015 2.94201e-014
rhumerus -57.1571 -35.7461 -37.3354
rradius 11.2108
rwrist 23.127
rhand -18.3679 10.15
rfingers 7.12502
rthumb 7.91522 -19.6819
lclavicle -6.75868e-015 2.94201e-014
lhumerus -39.9507 -1.2637 85.8881
lradius 38.0297
lwrist -6.3069
lhand 0.0965445 42.8243
lfingers 7.12502
lthumb 25.6828 71.1117
rfemur -17.3084 2.92976 26.9031
rtibia 18.5573
rfoot -7.16917 -9.8004
rtoes 22.3179
lfemur -10.6494 3.23112 -15.2771
ltibia 60.1866
lfoot 2.01547 -8.6563
ltoes 30.3564
445
root 0.604556 17.5873 -13.0757 5.80819 1.66903 -3.33198
lowerback 4.2506 -1.60603 4.63485
upperback 0.377713 -1.82611 4.39921
thorax -1.9974 -0.932771 2.04519
lowerneck -15.238 1.45878 0.588372
upperneck 11.8333 3.15522 -8.60331
head 6.26245 0.84931 -2.54122
rclavicle -2.54444e-014 -3.10104e-014
rhumerus -55.6848 -34.378 -39.8816
rradius 11.5353
rwrist 20.9683
rhand -18.7372 9.16845
rfingers 7.12502
rthumb 7.55878 -20.6765
lclavicle -2.54444e-014 -3.10104e-014
lhumerus -39.934 -1.06758 85.8801
lradius 38.4499
lwrist -6.25345
lhand -0.744104 42.2115
lfingers 7.12502
lthumb 24.8775 70.6127
rfemur -16.8491 3.25262 27.1357
rtibia 18.8619
rfoot -7.73923 -10.1288
rtoes 23.8642
lfemur -11.5208 3.34448 -14.9499
ltibia 61.056
lfoot 0.823794 -8.12992
ltoes 29.0659
446
root 0.595892 17.5773 -12.9802 5.57912 1.55434 -3.11616
lowerback 4.22233 -1.57077 4.39775
upperback 0.511414 -1.80361 4.27354
thorax -1.84008 -0.917807 2.04161
lowerneck -15.7941 1.11503 1.76838
upperneck 12.0627 2.63661 -9.7918
head 6.43759 0.535005 -3.17721
rclavicle -5.96354e-016 -9.54166e-015
rhumerus -55.6653 -36.2397 -38.7542
rradius 10.9326
rwrist 23.0422
rhand -19.0821 9.9675
rfingers 7.12502
rthumb 7.22588 -19.8891
lclavicle -5.96354e-016 -9.54166e-015
lhumerus -38.9422 -0.717874 85.5861
lradius 38.0622
lwrist -6.26758
lhand -1.13302 41.5506
lfingers 7.12502
lthumb 24.5047 70.0028
rfemur -16.4731 3.13797 26.9906
rtibia 19.1758
rfoot -7.95451 -9.87224
rtoes 23.3826
lfemur -12.1184 3.32069 -15.0143
ltibia 61.593
lfoot -0.40728 -7.87669
ltoes 31.0377
447
root 0.575955 17.5679 -12.8927 5.42149 1.42524 -3.36058
lowerback 4.24285 -1.49846 4.40111
upperback 0.512956 -1.70348 4.4006
thorax -1.84654 -0.867723 2.16602
lowerneck -15.1628 1.33015 0.703116
upperneck 11.9697 2.98588 -8.7403
head 6.28865 0.759273 -2.62234
rclavicle 8.54774e-015 -1.51076e-014
rhumerus -56.1965 -38.3244 -36.8158
rradius 10.5699
rwrist 25.7445
rhand -18.9302 9.89466
rfingers 7.12502
rthumb 7.3725 -19.9569
lclavicle 8.54774e-015 -1.51076e-014
lhumerus -38.2169 -0.572979 85.6149
lradius 38.0411
lwrist -5.90681
lhand -1.23231 42.2717
lfingers 7.12502
lthumb 24.4095 70.7368
rfemur -16.1056 3.99155 27.3173
rtibia 19.5157
rfoot -8.53449 -10.6728
rtoes 22.9728
lfemur -13.0544 3.43249 -14.5264
ltibia 62.132
lfoot -1.2961 -7.96355
ltoes 31.04
